<?xml version="1.0" encoding="UTF-8"?>
<svg version="1.1" xmlns="http://www.w3.org/2000/svg" width="64" height="64">
<path d="M0 0 C0.125 7.75 0.125 7.75 -1 10 C-0.01 10 0.98 10 2 10 C2 11.98 2 13.96 2 16 C0.68 16 -0.64 16 -2 16 C-2 17.32 -2 18.64 -2 20 C-1.34 20.33 -0.68 20.66 0 21 C0 19.68 0 18.36 0 17 C2.64 17 5.28 17 8 17 C8 18.32 8 19.64 8 21 C9.98 21 11.96 21 14 21 C14 30.57 14 40.14 14 50 C15.32 50 16.64 50 18 50 C17.125 54.875 17.125 54.875 16 56 C14.38419992 56.10382589 12.76389376 56.13852243 11.14477539 56.14526367 C10.1102272 56.15164352 9.07567902 56.15802338 8.00978088 56.16459656 C6.32077919 56.16626579 6.32077919 56.16626579 4.59765625 56.16796875 C3.44962021 56.17129715 2.30158417 56.17462555 1.11875916 56.17805481 C-1.31494749 56.18312901 -3.74866112 56.18546298 -6.18237305 56.18530273 C-9.91792192 56.18748854 -13.65317535 56.20563746 -17.38867188 56.22460938 C-19.74739482 56.22754325 -22.10611917 56.22952808 -24.46484375 56.23046875 C-25.58882065 56.23765427 -26.71279755 56.24483978 -27.87083435 56.25224304 C-28.9085347 56.24916641 -29.94623505 56.24608978 -31.01538086 56.24291992 C-31.93169785 56.24434494 -32.84801483 56.24576996 -33.792099 56.24723816 C-36 56 -36 56 -38 54 C-38 52.68 -38 51.36 -38 50 C-36.68 50 -35.36 50 -34 50 C-34 40.43 -34 30.86 -34 21 C-32.02 21 -30.04 21 -28 21 C-28 19.68 -28 18.36 -28 17 C-25.36 17 -22.72 17 -20 17 C-20 18.32 -20 19.64 -20 21 C-19.34 20.67 -18.68 20.34 -18 20 C-18 18.68 -18 17.36 -18 16 C-19.32 16 -20.64 16 -22 16 C-22 14.02 -22 12.04 -22 10 C-20.68 10 -19.36 10 -18 10 C-18.020625 8.700625 -18.04125 7.40125 -18.0625 6.0625 C-18.08399454 4.70834367 -18.07148199 3.35243917 -18 2 C-16.23153656 0.23153656 -13.65314428 0.62213182 -11.25 0.4375 C-9.67992187 0.31181641 -9.67992187 0.31181641 -8.078125 0.18359375 C-5.37463715 0.02234511 -2.70709587 -0.03509198 0 0 Z " fill="#E2BD99" transform="translate(42,4)"/>
<path d="M0 0 C14.52 0 29.04 0 44 0 C44 7.92 44 15.84 44 24 C29.48 24 14.96 24 0 24 C0 16.08 0 8.16 0 0 Z " fill="#EDEBE9" transform="translate(10,28)"/>
<path d="M0 0 C18.48 0 36.96 0 56 0 C55 5 55 5 54 6 C52.38419992 6.10382589 50.76389376 6.13852243 49.14477539 6.14526367 C48.1102272 6.15164352 47.07567902 6.15802338 46.00978088 6.16459656 C44.32077919 6.16626579 44.32077919 6.16626579 42.59765625 6.16796875 C41.44962021 6.17129715 40.30158417 6.17462555 39.11875916 6.17805481 C36.68505251 6.18312901 34.25133888 6.18546298 31.81762695 6.18530273 C28.08207808 6.18748854 24.34682465 6.20563746 20.61132812 6.22460938 C18.25260518 6.22754325 15.89388083 6.22952808 13.53515625 6.23046875 C12.41117935 6.23765427 11.28720245 6.24483978 10.12916565 6.25224304 C9.0914653 6.24916641 8.05376495 6.24608978 6.98461914 6.24291992 C6.06830215 6.24434494 5.15198517 6.24576996 4.207901 6.24723816 C2 6 2 6 0 4 C0 2.68 0 1.36 0 0 Z " fill="#009DC5" transform="translate(4,54)"/>
<path d="M0 0 C13.2 0 26.4 0 40 0 C40 2.64 40 5.28 40 8 C37.70890403 8.08075665 35.41700733 8.13907731 33.125 8.1875 C31.84882812 8.22230469 30.57265625 8.25710937 29.2578125 8.29296875 C27.64519531 8.14794922 27.64519531 8.14794922 26 8 C25.34 7.01 24.68 6.02 24 5 C21.13275314 5.57344937 20.1385485 5.8614515 18 8 C16.12060547 8.22705078 16.12060547 8.22705078 13.8671875 8.1953125 C12.65869141 8.18564453 12.65869141 8.18564453 11.42578125 8.17578125 C10.58402344 8.15902344 9.74226563 8.14226563 8.875 8.125 C7.60076172 8.11146484 7.60076172 8.11146484 6.30078125 8.09765625 C4.20040116 8.07405647 2.10016556 8.03818483 0 8 C0 5.36 0 2.72 0 0 Z " fill="#F9B302" transform="translate(12,30)"/>
<path d="M0 0 C6.93 0.495 6.93 0.495 14 1 C14 1.33 14 1.66 14 2 C8.06 2.495 8.06 2.495 2 3 C2 10.92 2 18.84 2 27 C16.52 27 31.04 27 46 27 C46 19.08 46 11.16 46 3 C42.04 2.67 38.08 2.34 34 2 C34 1.67 34 1.34 34 1 C38.62 0.67 43.24 0.34 48 0 C48 9.57 48 19.14 48 29 C32.16 29 16.32 29 0 29 C0 19.43 0 9.86 0 0 Z " fill="#094E76" transform="translate(8,25)"/>
<path d="M0 0 C0.125 7.75 0.125 7.75 -1 10 C-0.01 10 0.98 10 2 10 C2 11.98 2 13.96 2 16 C0.33388095 16.042721 -1.33382885 16.04063832 -3 16 C-4 15 -4 15 -4.0625 11.4375 C-4.041875 10.303125 -4.02125 9.16875 -4 8 C-7.96 8 -11.92 8 -16 8 C-15.979375 9.134375 -15.95875 10.26875 -15.9375 11.4375 C-16 15 -16 15 -17 16 C-18.66617115 16.04063832 -20.33388095 16.042721 -22 16 C-22 14.02 -22 12.04 -22 10 C-20.68 10 -19.36 10 -18 10 C-18.020625 8.700625 -18.04125 7.40125 -18.0625 6.0625 C-18.08399454 4.70834367 -18.07148199 3.35243917 -18 2 C-16.23153656 0.23153656 -13.65314428 0.62213182 -11.25 0.4375 C-9.67992187 0.31181641 -9.67992187 0.31181641 -8.078125 0.18359375 C-5.37463715 0.02234511 -2.70709587 -0.03509198 0 0 Z " fill="#00143C" transform="translate(42,4)"/>
<path d="M0 0 C0.74056641 0.02255859 1.48113281 0.04511719 2.24414062 0.06835938 C4.05947357 0.1269185 5.87375681 0.21659114 7.6875 0.3125 C7.6875 3.6125 7.6875 6.9125 7.6875 10.3125 C0.4275 10.3125 -6.8325 10.3125 -14.3125 10.3125 C-12.5232589 1.3662945 -8.34850577 -0.48494448 0 0 Z " fill="#F9B300" transform="translate(44.3125,39.6875)"/>
<path d="M0 0 C2.64 0 5.28 0 8 0 C8 1.32 8 2.64 8 4 C14.6 4 21.2 4 28 4 C28 2.68 28 1.36 28 0 C30.64 0 33.28 0 36 0 C36.125 4.75 36.125 4.75 35 7 C23.78 7 12.56 7 1 7 C0.67 4.69 0.34 2.38 0 0 Z " fill="#0A5078" transform="translate(14,21)"/>
<path d="M0 0 C4.95 0 9.9 0 15 0 C14.67 1.32 14.34 2.64 14 4 C14.66 4.66 15.32 5.32 16 6 C16 7.32 16 8.64 16 10 C10.72 10 5.44 10 0 10 C0 6.7 0 3.4 0 0 Z " fill="#EEAC05" transform="translate(12,40)"/>
<path d="M0 0 C1.89488952 1.89488952 1.18019112 4.57139146 1.23046875 7.08984375 C1 9 1 9 -1 11 C-3.3828125 11.1953125 -3.3828125 11.1953125 -6.125 11.125 C-7.49011719 11.09792969 -7.49011719 11.09792969 -8.8828125 11.0703125 C-9.58148438 11.04710937 -10.28015625 11.02390625 -11 11 C-12.34076016 4.78374836 -12.34076016 4.78374836 -10.75 1.125 C-7.29816389 -3.06651528 -4.56029962 -1.78446507 0 0 Z " fill="#CBD3BF" transform="translate(57,7)"/>
<path d="M0 0 C1 1 1 1 1.09765625 3.28515625 C1.08605469 4.20167969 1.07445312 5.11820313 1.0625 6.0625 C1.05347656 6.98160156 1.04445313 7.90070312 1.03515625 8.84765625 C1.02355469 9.55792969 1.01195312 10.26820312 1 11 C-2.37934773 11.28531078 -5.62901843 11.42745994 -9 11 C-11.25 8.875 -11.25 8.875 -12 6 C-11.40746405 2.6422963 -10.86375956 0.74036534 -8.25 -1.5 C-5.03840047 -2.21368878 -2.9789612 -1.25778362 0 0 Z " fill="#EEEDED" transform="translate(17,7)"/>
<path d="M0 0 C1.28132813 0.00902344 2.56265625 0.01804687 3.8828125 0.02734375 C4.87023438 0.03894531 5.85765625 0.05054687 6.875 0.0625 C6.875 2.7025 6.875 5.3425 6.875 8.0625 C4.60520335 8.17044277 2.33394804 8.24806176 0.0625 8.3125 C-1.20207031 8.35890625 -2.46664062 8.4053125 -3.76953125 8.453125 C-7.125 8.0625 -7.125 8.0625 -9.13671875 6.234375 C-10.125 4.0625 -10.125 4.0625 -9.125 1.0625 C-6.12186252 -0.43906874 -3.33432478 -0.03031204 0 0 Z " fill="#F8B103" transform="translate(45.125,29.9375)"/>
<path d="M0 0 C0.99 0.33 1.98 0.66 3 1 C3 1.66 3 2.32 3 3 C3.66 3 4.32 3 5 3 C3.50902342 6.7952131 1.24299151 8.61042731 -2 11 C-3.32 9.35 -4.64 7.7 -6 6 C-4.02 4.02 -2.04 2.04 0 0 Z " fill="#189AB4" transform="translate(32,35)"/>
<path d="M0 0 C2.64 0 5.28 0 8 0 C8 1.65 8 3.3 8 5 C5.36 5 2.72 5 0 5 C0 3.35 0 1.7 0 0 Z " fill="#E7C099" transform="translate(42,21)"/>
<path d="M0 0 C2.64 0 5.28 0 8 0 C8 1.65 8 3.3 8 5 C5.36 5 2.72 5 0 5 C0 3.35 0 1.7 0 0 Z " fill="#E7C099" transform="translate(14,21)"/>
<path d="M0 0 C1.32 0 2.64 0 4 0 C4 1.98 4 3.96 4 6 C2.68 6 1.36 6 0 6 C0 4.02 0 2.04 0 0 Z " fill="#F1C8A0" transform="translate(40,14)"/>
<path d="M0 0 C1.32 0 2.64 0 4 0 C4 1.98 4 3.96 4 6 C2.68 6 1.36 6 0 6 C0 4.02 0 2.04 0 0 Z " fill="#F1C79F" transform="translate(20,14)"/>
<path d="M0 0 C0 0.66 0 1.32 0 2 C-5.75 3.125 -5.75 3.125 -8 2 C-8 1.34 -8 0.68 -8 0 C-5.13822943 -1.43088528 -3.06624227 -0.59991697 0 0 Z " fill="#C12D68" transform="translate(56,9)"/>
<path d="M0 0 C0.66 0 1.32 0 2 0 C0.95125002 2.62187494 0.35068687 3.79371361 -2.125 5.25 C-2.74375 5.4975 -3.3625 5.745 -4 6 C-4.66 4.68 -5.32 3.36 -6 2 C-4.7934375 1.7834375 -4.7934375 1.7834375 -3.5625 1.5625 C-1.07896294 1.25864751 -1.07896294 1.25864751 0 0 Z " fill="#CB2763" transform="translate(14,9)"/>
<path d="M0 0 C-1.49097658 3.7952131 -3.75700849 5.61042731 -7 8 C-7 5 -7 5 -4.625 2.3125 C-2 0 -2 0 0 0 Z " fill="#2AA0AC" transform="translate(37,38)"/>
<path d="M0 0 C1.485 0.99 1.485 0.99 3 2 C3.40843923 4.71203652 3.13336867 7.2437142 3 10 C2.01 10.495 2.01 10.495 1 11 C0.67 7.37 0.34 3.74 0 0 Z " fill="#F0F0F0" transform="translate(55,6)"/>
<path d="M0 0 C1.32 0.66 2.64 1.32 4 2 C4 3.32 4 4.64 4 6 C2.68 5.34 1.36 4.68 0 4 C0 2.68 0 1.36 0 0 Z " fill="#CA1852" transform="translate(36,31)"/>
<path d="M0 0 C1.1446875 0.2784375 1.1446875 0.2784375 2.3125 0.5625 C5.08967375 1.22819173 5.08967375 1.22819173 8 0 C7.34 1.32 6.68 2.64 6 4 C4.35 3.67 2.7 3.34 1 3 C0.67 2.01 0.34 1.02 0 0 Z " fill="#28324C" transform="translate(28,20)"/>
<path d="M0 0 C-1.28519565 2.86697492 -2.57129254 4.97607712 -5 7 C-5.66 7 -6.32 7 -7 7 C-3.86206897 0 -3.86206897 0 0 0 Z " fill="#003F67" transform="translate(35,37)"/>
</svg>
